<svg width="25" height="24" viewBox="0 0 25 24" fill="none" xmlns="http://www.w3.org/2000/svg">
<g clip-path="url(#clip0_309_4906)">
<path d="M12.4023 5.98083C11.809 5.98083 11.229 6.15678 10.7356 6.48643C10.2423 6.81607 9.85777 7.2846 9.63071 7.83278C9.40364 8.38096 9.34423 8.98416 9.45999 9.5661C9.57574 10.148 9.86147 10.6826 10.281 11.1021C10.7006 11.5217 11.2351 11.8074 11.8171 11.9232C12.399 12.0389 13.0022 11.9795 13.5504 11.7525C14.0986 11.5254 14.5671 11.1409 14.8968 10.6475C15.2264 10.1542 15.4023 9.57417 15.4023 8.98083C15.4014 8.18546 15.0851 7.42293 14.5227 6.86051C13.9603 6.2981 13.1977 5.98174 12.4023 5.98083ZM12.4023 10.4808C12.1057 10.4808 11.8157 10.3929 11.569 10.228C11.3223 10.0632 11.1301 9.82894 11.0165 9.55486C10.903 9.28077 10.8733 8.97917 10.9312 8.6882C10.989 8.39722 11.1319 8.12995 11.3417 7.92017C11.5515 7.71039 11.8187 7.56753 12.1097 7.50965C12.4007 7.45178 12.7023 7.48148 12.9764 7.59501C13.2505 7.70855 13.4847 7.9008 13.6495 8.14748C13.8144 8.39415 13.9023 8.68416 13.9023 8.98083C13.9019 9.37851 13.7437 9.75978 13.4625 10.041C13.1813 10.3222 12.8 10.4804 12.4023 10.4808Z" fill="#2D2D2D"/>
<path d="M18.1676 3.2117C16.7423 1.78672 14.8396 0.940225 12.8268 0.835587C10.8141 0.73095 8.8339 1.37559 7.26849 2.64509C5.70307 3.91459 4.66338 5.71895 4.35009 7.70993C4.0368 9.70092 4.47212 11.7374 5.57202 13.4263L11.2395 22.1269C11.3657 22.3205 11.5381 22.4795 11.7412 22.5897C11.9444 22.6998 12.1718 22.7574 12.4029 22.7574C12.6339 22.7574 12.8613 22.6998 13.0645 22.5897C13.2676 22.4795 13.4401 22.3205 13.5662 22.1269L19.2339 13.4263C20.2545 11.8596 20.7055 9.98967 20.5114 8.12998C20.3172 6.27029 19.4897 4.53385 18.1676 3.2117ZM17.9771 12.6075L12.4029 21.1645L6.82865 12.6075C5.1224 9.98818 5.48835 6.48287 7.69879 4.27234C8.31653 3.65458 9.0499 3.16454 9.85703 2.83021C10.6642 2.49588 11.5292 2.3238 12.4029 2.3238C13.2765 2.3238 14.1416 2.49588 14.9487 2.83021C15.7559 3.16454 16.4892 3.65458 17.107 4.27234C19.3174 6.48287 19.6833 9.98818 17.9771 12.6075Z" fill="#2D2D2D"/>
</g>
<defs>
<clipPath id="clip0_309_4906">
<rect width="24" height="24" fill="white" transform="translate(0.5)"/>
</clipPath>
</defs>
</svg>
